# xmcd
#
# Track frame offsets: 
#        150
#        22099
#        43362
#        64096
#        82012
#        96282
#        117559
#        140926
#        162131
#        183647
#
# Disc length: 2670 seconds
#
# Revision: 1
# Processed by: cddbd v1.5.2PL0 Copyright (c) Steve Scherf et al.
# Submitted via: ExactAudioCopy v0.95b4
#
DISCID=990a6c0a
DTITLE=Lee Clayton - Border Affair
DYEAR=1978
DGENRE=Country
TTITLE0=Silver Stallion
TTITLE1=If You Can Touch Her At All
TTITLE2=Back Home In Tennesse
TTITLE3=Border Affair
TTITLE4=Old Number Nine
TTITLE5=Like A Diamond
TTITLE6=My Woman My Love
TTITLE7=Tequila Is Addictive
TTITLE8=My True Love
TTITLE9=Rainbow In The Sky
EXTD=
EXTT0=
EXTT1=
EXTT2=
EXTT3=
EXTT4=
EXTT5=
EXTT6=
EXTT7=
EXTT8=
EXTT9=
PLAYORDER=
